<mxfile host="app.diagrams.net" modified="2020-09-25T07:56:58.121Z" agent="5.0 (Windows NT 6.1; Win64; x64) AppleWebKit/537.36 (KHTML, like Gecko) Chrome/85.0.4183.102 Safari/537.36" etag="E4R1pm9XpejEvB0aAbJl" version="13.6.3" type="github">
  <diagram id="sB7zFL8JFn0QuQvQ9iL3" name="第 1 页">
    <mxGraphModel dx="1108" dy="482" grid="1" gridSize="10" guides="1" tooltips="1" connect="1" arrows="1" fold="1" page="1" pageScale="1" pageWidth="1169" pageHeight="1654" math="0" shadow="0">
      <root>
        <mxCell id="0" />
        <mxCell id="1" parent="0" />
        <mxCell id="WBYiJeZkuYEDSoGqKssV-112" value="" style="rounded=0;whiteSpace=wrap;html=1;fillColor=#E6E6E6;" vertex="1" parent="1">
          <mxGeometry x="585" y="30" width="565" height="330" as="geometry" />
        </mxCell>
        <mxCell id="WBYiJeZkuYEDSoGqKssV-60" value="" style="rounded=0;whiteSpace=wrap;html=1;fillColor=#99FF99;" vertex="1" parent="1">
          <mxGeometry x="600" y="470" width="530" height="110" as="geometry" />
        </mxCell>
        <mxCell id="WBYiJeZkuYEDSoGqKssV-66" value="" style="rounded=0;whiteSpace=wrap;html=1;" vertex="1" parent="1">
          <mxGeometry x="882.5" y="630" width="237.5" height="108.75" as="geometry" />
        </mxCell>
        <mxCell id="WBYiJeZkuYEDSoGqKssV-14" style="edgeStyle=orthogonalEdgeStyle;rounded=0;orthogonalLoop=1;jettySize=auto;html=1;exitX=0.5;exitY=1;exitDx=0;exitDy=0;" edge="1" parent="1" source="WBYiJeZkuYEDSoGqKssV-3">
          <mxGeometry relative="1" as="geometry">
            <mxPoint x="630" y="339.5" as="targetPoint" />
          </mxGeometry>
        </mxCell>
        <mxCell id="WBYiJeZkuYEDSoGqKssV-32" style="edgeStyle=orthogonalEdgeStyle;rounded=0;orthogonalLoop=1;jettySize=auto;html=1;exitX=0.5;exitY=0;exitDx=0;exitDy=0;entryX=0.5;entryY=0;entryDx=0;entryDy=0;" edge="1" parent="1" target="WBYiJeZkuYEDSoGqKssV-3">
          <mxGeometry relative="1" as="geometry">
            <mxPoint x="630" y="169.5" as="sourcePoint" />
          </mxGeometry>
        </mxCell>
        <mxCell id="WBYiJeZkuYEDSoGqKssV-3" value="手机1" style="rounded=0;whiteSpace=wrap;html=1;fillColor=#9999FF;" vertex="1" parent="1">
          <mxGeometry x="600" y="199.5" width="60" height="120" as="geometry" />
        </mxCell>
        <mxCell id="WBYiJeZkuYEDSoGqKssV-4" value="手机N" style="rounded=0;whiteSpace=wrap;html=1;fillColor=#9999FF;" vertex="1" parent="1">
          <mxGeometry x="1070" y="199.5" width="60" height="120" as="geometry" />
        </mxCell>
        <mxCell id="WBYiJeZkuYEDSoGqKssV-12" style="edgeStyle=orthogonalEdgeStyle;rounded=0;orthogonalLoop=1;jettySize=auto;html=1;exitX=0.5;exitY=1;exitDx=0;exitDy=0;" edge="1" parent="1" source="WBYiJeZkuYEDSoGqKssV-5">
          <mxGeometry relative="1" as="geometry">
            <mxPoint x="880" y="339.5" as="targetPoint" />
          </mxGeometry>
        </mxCell>
        <mxCell id="WBYiJeZkuYEDSoGqKssV-5" value="手机3" style="rounded=0;whiteSpace=wrap;html=1;fillColor=#9999FF;" vertex="1" parent="1">
          <mxGeometry x="850" y="199.5" width="60" height="120" as="geometry" />
        </mxCell>
        <mxCell id="WBYiJeZkuYEDSoGqKssV-11" style="edgeStyle=orthogonalEdgeStyle;rounded=0;orthogonalLoop=1;jettySize=auto;html=1;exitX=0.5;exitY=1;exitDx=0;exitDy=0;" edge="1" parent="1" source="WBYiJeZkuYEDSoGqKssV-6">
          <mxGeometry relative="1" as="geometry">
            <mxPoint x="760" y="339.5" as="targetPoint" />
          </mxGeometry>
        </mxCell>
        <mxCell id="WBYiJeZkuYEDSoGqKssV-6" value="手机2" style="rounded=0;whiteSpace=wrap;html=1;fillColor=#9999FF;" vertex="1" parent="1">
          <mxGeometry x="730" y="199.5" width="60" height="120" as="geometry" />
        </mxCell>
        <mxCell id="WBYiJeZkuYEDSoGqKssV-8" value="..." style="text;html=1;strokeColor=none;fillColor=none;align=center;verticalAlign=middle;whiteSpace=wrap;rounded=0;" vertex="1" parent="1">
          <mxGeometry x="970" y="249.5" width="40" height="20" as="geometry" />
        </mxCell>
        <mxCell id="WBYiJeZkuYEDSoGqKssV-24" style="edgeStyle=orthogonalEdgeStyle;rounded=0;orthogonalLoop=1;jettySize=auto;html=1;exitX=0.5;exitY=1;exitDx=0;exitDy=0;" edge="1" parent="1">
          <mxGeometry relative="1" as="geometry">
            <mxPoint x="1099.5" y="339.5" as="targetPoint" />
            <mxPoint x="1099.5" y="319.5" as="sourcePoint" />
          </mxGeometry>
        </mxCell>
        <mxCell id="WBYiJeZkuYEDSoGqKssV-28" value="" style="endArrow=none;html=1;" edge="1" parent="1">
          <mxGeometry width="50" height="50" relative="1" as="geometry">
            <mxPoint x="630" y="339.5" as="sourcePoint" />
            <mxPoint x="1100" y="339.5" as="targetPoint" />
          </mxGeometry>
        </mxCell>
        <mxCell id="WBYiJeZkuYEDSoGqKssV-29" value="" style="endArrow=none;html=1;" edge="1" parent="1">
          <mxGeometry width="50" height="50" relative="1" as="geometry">
            <mxPoint x="629" y="169.5" as="sourcePoint" />
            <mxPoint x="1099" y="169.5" as="targetPoint" />
          </mxGeometry>
        </mxCell>
        <mxCell id="WBYiJeZkuYEDSoGqKssV-33" style="edgeStyle=orthogonalEdgeStyle;rounded=0;orthogonalLoop=1;jettySize=auto;html=1;exitX=0.5;exitY=0;exitDx=0;exitDy=0;entryX=0.5;entryY=0;entryDx=0;entryDy=0;" edge="1" parent="1">
          <mxGeometry relative="1" as="geometry">
            <mxPoint x="759.5" y="199.5" as="targetPoint" />
            <mxPoint x="759.5" y="169.5" as="sourcePoint" />
          </mxGeometry>
        </mxCell>
        <mxCell id="WBYiJeZkuYEDSoGqKssV-34" style="edgeStyle=orthogonalEdgeStyle;rounded=0;orthogonalLoop=1;jettySize=auto;html=1;exitX=0.5;exitY=0;exitDx=0;exitDy=0;entryX=0.5;entryY=0;entryDx=0;entryDy=0;" edge="1" parent="1">
          <mxGeometry relative="1" as="geometry">
            <mxPoint x="879.5" y="199.5" as="targetPoint" />
            <mxPoint x="879.5" y="169.5" as="sourcePoint" />
          </mxGeometry>
        </mxCell>
        <mxCell id="WBYiJeZkuYEDSoGqKssV-35" style="edgeStyle=orthogonalEdgeStyle;rounded=0;orthogonalLoop=1;jettySize=auto;html=1;exitX=0.5;exitY=0;exitDx=0;exitDy=0;entryX=0.5;entryY=0;entryDx=0;entryDy=0;" edge="1" parent="1">
          <mxGeometry relative="1" as="geometry">
            <mxPoint x="1099.5" y="199.5" as="targetPoint" />
            <mxPoint x="1099.5" y="169.5" as="sourcePoint" />
          </mxGeometry>
        </mxCell>
        <mxCell id="WBYiJeZkuYEDSoGqKssV-36" value="手机爬虫集群" style="text;html=1;strokeColor=none;fillColor=none;align=center;verticalAlign=middle;whiteSpace=wrap;rounded=0;" vertex="1" parent="1">
          <mxGeometry x="940" y="309.5" width="80" height="20" as="geometry" />
        </mxCell>
        <mxCell id="WBYiJeZkuYEDSoGqKssV-38" style="edgeStyle=orthogonalEdgeStyle;rounded=0;orthogonalLoop=1;jettySize=auto;html=1;exitX=0.5;exitY=1;exitDx=0;exitDy=0;" edge="1" parent="1" source="WBYiJeZkuYEDSoGqKssV-37">
          <mxGeometry relative="1" as="geometry">
            <mxPoint x="865" y="169.5" as="targetPoint" />
          </mxGeometry>
        </mxCell>
        <mxCell id="WBYiJeZkuYEDSoGqKssV-37" value="手机爬虫中控机" style="rounded=0;whiteSpace=wrap;html=1;fillColor=#9999FF;" vertex="1" parent="1">
          <mxGeometry x="600" y="39.5" width="530" height="60" as="geometry" />
        </mxCell>
        <mxCell id="WBYiJeZkuYEDSoGqKssV-39" value="通过Airtest测试框架，调度爬虫集群访问指定的App页面" style="text;html=1;strokeColor=none;fillColor=none;align=center;verticalAlign=middle;whiteSpace=wrap;rounded=0;" vertex="1" parent="1">
          <mxGeometry x="870" y="129.5" width="200" height="10" as="geometry" />
        </mxCell>
        <mxCell id="WBYiJeZkuYEDSoGqKssV-40" value="任务队列" style="strokeWidth=2;html=1;shape=mxgraph.flowchart.sequential_data;whiteSpace=wrap;" vertex="1" parent="1">
          <mxGeometry x="290" y="149.5" width="100" height="100" as="geometry" />
        </mxCell>
        <mxCell id="WBYiJeZkuYEDSoGqKssV-41" value="" style="endArrow=classic;html=1;entryX=0;entryY=0.5;entryDx=0;entryDy=0;exitX=0.5;exitY=0;exitDx=0;exitDy=0;exitPerimeter=0;" edge="1" parent="1" source="WBYiJeZkuYEDSoGqKssV-40" target="WBYiJeZkuYEDSoGqKssV-37">
          <mxGeometry width="50" height="50" relative="1" as="geometry">
            <mxPoint x="160" y="140" as="sourcePoint" />
            <mxPoint x="200" y="60" as="targetPoint" />
            <Array as="points">
              <mxPoint x="340" y="70" />
            </Array>
          </mxGeometry>
        </mxCell>
        <mxCell id="WBYiJeZkuYEDSoGqKssV-42" value="" style="rounded=0;whiteSpace=wrap;html=1;fillColor=#99FF99;" vertex="1" parent="1">
          <mxGeometry x="55" y="460" width="485" height="370" as="geometry" />
        </mxCell>
        <mxCell id="WBYiJeZkuYEDSoGqKssV-43" value="" style="rounded=0;whiteSpace=wrap;html=1;" vertex="1" parent="1">
          <mxGeometry x="70" y="470" width="440" height="100" as="geometry" />
        </mxCell>
        <mxCell id="WBYiJeZkuYEDSoGqKssV-45" value="定期从任务队列拉取任务" style="text;html=1;strokeColor=none;fillColor=none;align=center;verticalAlign=middle;whiteSpace=wrap;rounded=0;" vertex="1" parent="1">
          <mxGeometry x="390" y="50" width="200" height="10" as="geometry" />
        </mxCell>
        <mxCell id="WBYiJeZkuYEDSoGqKssV-46" value="根据策略配置插入任务" style="text;html=1;strokeColor=none;fillColor=none;align=center;verticalAlign=middle;whiteSpace=wrap;rounded=0;" vertex="1" parent="1">
          <mxGeometry x="160" y="350" width="200" height="10" as="geometry" />
        </mxCell>
        <mxCell id="WBYiJeZkuYEDSoGqKssV-48" style="edgeStyle=orthogonalEdgeStyle;rounded=0;orthogonalLoop=1;jettySize=auto;html=1;exitX=0.5;exitY=0;exitDx=0;exitDy=0;entryX=1;entryY=1;entryDx=0;entryDy=0;entryPerimeter=0;" edge="1" parent="1" source="WBYiJeZkuYEDSoGqKssV-47" target="WBYiJeZkuYEDSoGqKssV-40">
          <mxGeometry relative="1" as="geometry" />
        </mxCell>
        <mxCell id="WBYiJeZkuYEDSoGqKssV-47" value="任务生成" style="rounded=0;whiteSpace=wrap;html=1;" vertex="1" parent="1">
          <mxGeometry x="100" y="480" width="120" height="60" as="geometry" />
        </mxCell>
        <mxCell id="WBYiJeZkuYEDSoGqKssV-49" value="策略配置" style="rounded=0;whiteSpace=wrap;html=1;" vertex="1" parent="1">
          <mxGeometry x="240" y="480" width="120" height="60" as="geometry" />
        </mxCell>
        <mxCell id="WBYiJeZkuYEDSoGqKssV-50" value="抓取策略控制模块" style="text;html=1;strokeColor=none;fillColor=none;align=center;verticalAlign=middle;whiteSpace=wrap;rounded=0;" vertex="1" parent="1">
          <mxGeometry x="55" y="550" width="130" height="20" as="geometry" />
        </mxCell>
        <mxCell id="WBYiJeZkuYEDSoGqKssV-51" value="主服务器" style="text;html=1;strokeColor=none;fillColor=none;align=center;verticalAlign=middle;whiteSpace=wrap;rounded=0;" vertex="1" parent="1">
          <mxGeometry x="30" y="520" width="20" height="210" as="geometry" />
        </mxCell>
        <mxCell id="WBYiJeZkuYEDSoGqKssV-53" value="" style="rounded=0;whiteSpace=wrap;html=1;" vertex="1" parent="1">
          <mxGeometry x="70" y="600" width="440" height="100" as="geometry" />
        </mxCell>
        <mxCell id="WBYiJeZkuYEDSoGqKssV-54" value="代理IP配置" style="rounded=0;whiteSpace=wrap;html=1;" vertex="1" parent="1">
          <mxGeometry x="100" y="610" width="120" height="60" as="geometry" />
        </mxCell>
        <mxCell id="WBYiJeZkuYEDSoGqKssV-68" value="" style="edgeStyle=orthogonalEdgeStyle;rounded=0;orthogonalLoop=1;jettySize=auto;html=1;" edge="1" parent="1" source="WBYiJeZkuYEDSoGqKssV-55" target="WBYiJeZkuYEDSoGqKssV-57">
          <mxGeometry relative="1" as="geometry" />
        </mxCell>
        <mxCell id="WBYiJeZkuYEDSoGqKssV-55" value="IP监测和更新" style="rounded=0;whiteSpace=wrap;html=1;" vertex="1" parent="1">
          <mxGeometry x="240" y="610" width="80" height="60" as="geometry" />
        </mxCell>
        <mxCell id="WBYiJeZkuYEDSoGqKssV-56" value="IP代理模块" style="text;html=1;strokeColor=none;fillColor=none;align=center;verticalAlign=middle;whiteSpace=wrap;rounded=0;" vertex="1" parent="1">
          <mxGeometry x="40" y="680" width="130" height="20" as="geometry" />
        </mxCell>
        <mxCell id="WBYiJeZkuYEDSoGqKssV-62" style="edgeStyle=orthogonalEdgeStyle;rounded=0;orthogonalLoop=1;jettySize=auto;html=1;exitX=1;exitY=0.5;exitDx=0;exitDy=0;" edge="1" parent="1" source="WBYiJeZkuYEDSoGqKssV-57" target="WBYiJeZkuYEDSoGqKssV-91">
          <mxGeometry relative="1" as="geometry">
            <mxPoint x="610" y="525" as="targetPoint" />
            <Array as="points">
              <mxPoint x="570" y="640" />
              <mxPoint x="570" y="525" />
            </Array>
          </mxGeometry>
        </mxCell>
        <mxCell id="WBYiJeZkuYEDSoGqKssV-57" value="代理IP提供" style="rounded=0;whiteSpace=wrap;html=1;" vertex="1" parent="1">
          <mxGeometry x="380" y="610" width="120" height="60" as="geometry" />
        </mxCell>
        <mxCell id="WBYiJeZkuYEDSoGqKssV-58" value="手机端代理配置" style="rounded=0;whiteSpace=wrap;html=1;" vertex="1" parent="1">
          <mxGeometry x="600" y="390" width="530" height="40" as="geometry" />
        </mxCell>
        <mxCell id="WBYiJeZkuYEDSoGqKssV-63" value="自己搭建的代理服务" style="rounded=0;whiteSpace=wrap;html=1;" vertex="1" parent="1">
          <mxGeometry x="921.25" y="638.75" width="160" height="33.75" as="geometry" />
        </mxCell>
        <mxCell id="WBYiJeZkuYEDSoGqKssV-64" value="第三方代理IP池" style="rounded=0;whiteSpace=wrap;html=1;" vertex="1" parent="1">
          <mxGeometry x="921.25" y="688.75" width="160" height="36.25" as="geometry" />
        </mxCell>
        <mxCell id="WBYiJeZkuYEDSoGqKssV-72" value="" style="endArrow=classic;startArrow=classic;html=1;exitX=0.459;exitY=0.022;exitDx=0;exitDy=0;exitPerimeter=0;" edge="1" parent="1" source="WBYiJeZkuYEDSoGqKssV-66">
          <mxGeometry width="50" height="50" relative="1" as="geometry">
            <mxPoint x="810" y="630" as="sourcePoint" />
            <mxPoint x="992" y="582" as="targetPoint" />
          </mxGeometry>
        </mxCell>
        <mxCell id="WBYiJeZkuYEDSoGqKssV-74" value="" style="endArrow=classic;startArrow=classic;html=1;" edge="1" parent="1">
          <mxGeometry width="50" height="50" relative="1" as="geometry">
            <mxPoint x="1001" y="786" as="sourcePoint" />
            <mxPoint x="1001" y="740" as="targetPoint" />
          </mxGeometry>
        </mxCell>
        <mxCell id="WBYiJeZkuYEDSoGqKssV-75" value="" style="endArrow=classic;startArrow=classic;html=1;" edge="1" parent="1">
          <mxGeometry width="50" height="50" relative="1" as="geometry">
            <mxPoint x="865" y="470" as="sourcePoint" />
            <mxPoint x="865.0699999999999" y="429.61" as="targetPoint" />
          </mxGeometry>
        </mxCell>
        <mxCell id="WBYiJeZkuYEDSoGqKssV-76" value="" style="endArrow=classic;startArrow=classic;html=1;exitX=0.5;exitY=0;exitDx=0;exitDy=0;" edge="1" parent="1" source="WBYiJeZkuYEDSoGqKssV-58">
          <mxGeometry width="50" height="50" relative="1" as="geometry">
            <mxPoint x="865" y="370" as="sourcePoint" />
            <mxPoint x="865" y="340" as="targetPoint" />
          </mxGeometry>
        </mxCell>
        <mxCell id="WBYiJeZkuYEDSoGqKssV-77" value="" style="rounded=0;whiteSpace=wrap;html=1;" vertex="1" parent="1">
          <mxGeometry x="70" y="720" width="440" height="100" as="geometry" />
        </mxCell>
        <mxCell id="WBYiJeZkuYEDSoGqKssV-78" value="配置模块" style="rounded=0;whiteSpace=wrap;html=1;" vertex="1" parent="1">
          <mxGeometry x="100" y="730" width="120" height="60" as="geometry" />
        </mxCell>
        <mxCell id="WBYiJeZkuYEDSoGqKssV-98" style="edgeStyle=orthogonalEdgeStyle;rounded=0;orthogonalLoop=1;jettySize=auto;html=1;exitX=0.5;exitY=1;exitDx=0;exitDy=0;" edge="1" parent="1" source="WBYiJeZkuYEDSoGqKssV-80">
          <mxGeometry relative="1" as="geometry">
            <mxPoint x="300" y="920" as="targetPoint" />
          </mxGeometry>
        </mxCell>
        <mxCell id="WBYiJeZkuYEDSoGqKssV-80" value="处理模块" style="rounded=0;whiteSpace=wrap;html=1;" vertex="1" parent="1">
          <mxGeometry x="245" y="730" width="110" height="60" as="geometry" />
        </mxCell>
        <mxCell id="WBYiJeZkuYEDSoGqKssV-81" value="数据处理模块" style="text;html=1;strokeColor=none;fillColor=none;align=center;verticalAlign=middle;whiteSpace=wrap;rounded=0;" vertex="1" parent="1">
          <mxGeometry x="50" y="800" width="130" height="20" as="geometry" />
        </mxCell>
        <mxCell id="WBYiJeZkuYEDSoGqKssV-82" value="接收模块" style="rounded=0;whiteSpace=wrap;html=1;" vertex="1" parent="1">
          <mxGeometry x="380" y="730" width="120" height="60" as="geometry" />
        </mxCell>
        <mxCell id="WBYiJeZkuYEDSoGqKssV-85" value="" style="endArrow=classic;html=1;exitX=0.428;exitY=0.991;exitDx=0;exitDy=0;exitPerimeter=0;entryX=1;entryY=0.617;entryDx=0;entryDy=0;entryPerimeter=0;" edge="1" parent="1" source="WBYiJeZkuYEDSoGqKssV-60" target="WBYiJeZkuYEDSoGqKssV-82">
          <mxGeometry width="50" height="50" relative="1" as="geometry">
            <mxPoint x="730" y="710" as="sourcePoint" />
            <mxPoint x="780" y="660" as="targetPoint" />
            <Array as="points">
              <mxPoint x="827" y="767" />
            </Array>
          </mxGeometry>
        </mxCell>
        <mxCell id="WBYiJeZkuYEDSoGqKssV-89" style="edgeStyle=orthogonalEdgeStyle;rounded=0;orthogonalLoop=1;jettySize=auto;html=1;exitX=0;exitY=0.5;exitDx=0;exitDy=0;exitPerimeter=0;" edge="1" parent="1" source="WBYiJeZkuYEDSoGqKssV-86">
          <mxGeometry relative="1" as="geometry">
            <mxPoint x="180" y="950" as="targetPoint" />
          </mxGeometry>
        </mxCell>
        <mxCell id="WBYiJeZkuYEDSoGqKssV-86" value="数据处理队列" style="strokeWidth=2;html=1;shape=mxgraph.flowchart.sequential_data;whiteSpace=wrap;" vertex="1" parent="1">
          <mxGeometry x="380" y="900" width="100" height="100" as="geometry" />
        </mxCell>
        <mxCell id="WBYiJeZkuYEDSoGqKssV-87" value="" style="endArrow=classic;html=1;exitX=0.417;exitY=1.05;exitDx=0;exitDy=0;exitPerimeter=0;" edge="1" parent="1" source="WBYiJeZkuYEDSoGqKssV-82">
          <mxGeometry width="50" height="50" relative="1" as="geometry">
            <mxPoint x="420" y="840" as="sourcePoint" />
            <mxPoint x="430" y="890" as="targetPoint" />
          </mxGeometry>
        </mxCell>
        <mxCell id="WBYiJeZkuYEDSoGqKssV-90" value="存储库" style="shape=datastore;whiteSpace=wrap;html=1;" vertex="1" parent="1">
          <mxGeometry x="100" y="920" width="60" height="60" as="geometry" />
        </mxCell>
        <mxCell id="WBYiJeZkuYEDSoGqKssV-91" value="下载代理IP" style="rounded=0;whiteSpace=wrap;html=1;" vertex="1" parent="1">
          <mxGeometry x="630" y="493.75" width="100" height="46.25" as="geometry" />
        </mxCell>
        <mxCell id="WBYiJeZkuYEDSoGqKssV-92" value="接收请求和转发/响应的处理和转发" style="rounded=0;whiteSpace=wrap;html=1;" vertex="1" parent="1">
          <mxGeometry x="770" y="493.75" width="300" height="44.62" as="geometry" />
        </mxCell>
        <mxCell id="WBYiJeZkuYEDSoGqKssV-93" value="代理服务器" style="text;html=1;strokeColor=none;fillColor=none;align=center;verticalAlign=middle;whiteSpace=wrap;rounded=0;" vertex="1" parent="1">
          <mxGeometry x="1030" y="550" width="90" height="20" as="geometry" />
        </mxCell>
        <mxCell id="WBYiJeZkuYEDSoGqKssV-99" value="从队列获取数据并处理入库" style="text;html=1;strokeColor=none;fillColor=none;align=center;verticalAlign=middle;whiteSpace=wrap;rounded=0;" vertex="1" parent="1">
          <mxGeometry x="200" y="930" width="150" height="20" as="geometry" />
        </mxCell>
        <mxCell id="WBYiJeZkuYEDSoGqKssV-104" value="App服务器" style="rounded=0;whiteSpace=wrap;html=1;fillColor=#FFCCCC;" vertex="1" parent="1">
          <mxGeometry x="877.5" y="890" width="247.5" height="50" as="geometry" />
        </mxCell>
        <mxCell id="WBYiJeZkuYEDSoGqKssV-105" value="" style="endArrow=classic;startArrow=classic;html=1;" edge="1" parent="1">
          <mxGeometry width="50" height="50" relative="1" as="geometry">
            <mxPoint x="1000.75" y="890" as="sourcePoint" />
            <mxPoint x="1001" y="861" as="targetPoint" />
          </mxGeometry>
        </mxCell>
        <mxCell id="WBYiJeZkuYEDSoGqKssV-106" value="" style="ellipse;shape=cloud;whiteSpace=wrap;html=1;" vertex="1" parent="1">
          <mxGeometry x="940" y="780" width="120" height="80" as="geometry" />
        </mxCell>
      </root>
    </mxGraphModel>
  </diagram>
</mxfile>
